<svg id="visual" viewBox="0 0 960 540" width="960" height="540" xmlns="http://www.w3.org/2000/svg" xmlns:xlink="http://www.w3.org/1999/xlink" version="1.1"><rect x="0" y="0" width="960" height="540" fill="#ffffff"></rect><defs><linearGradient id="grad1_0" x1="43.8%" y1="100%" x2="100%" y2="0%"><stop offset="14.444444444444446%" stop-color="#c62368" stop-opacity="1"></stop><stop offset="85.55555555555554%" stop-color="#c62368" stop-opacity="1"></stop></linearGradient></defs><defs><linearGradient id="grad1_1" x1="43.8%" y1="100%" x2="100%" y2="0%"><stop offset="14.444444444444446%" stop-color="#c62368" stop-opacity="1"></stop><stop offset="85.55555555555554%" stop-color="#d24e7c" stop-opacity="1"></stop></linearGradient></defs><defs><linearGradient id="grad1_2" x1="43.8%" y1="100%" x2="100%" y2="0%"><stop offset="14.444444444444446%" stop-color="#dd6e90" stop-opacity="1"></stop><stop offset="85.55555555555554%" stop-color="#d24e7c" stop-opacity="1"></stop></linearGradient></defs><defs><linearGradient id="grad1_3" x1="43.8%" y1="100%" x2="100%" y2="0%"><stop offset="14.444444444444446%" stop-color="#dd6e90" stop-opacity="1"></stop><stop offset="85.55555555555554%" stop-color="#e68ca5" stop-opacity="1"></stop></linearGradient></defs><defs><linearGradient id="grad1_4" x1="43.8%" y1="100%" x2="100%" y2="0%"><stop offset="14.444444444444446%" stop-color="#eea9bb" stop-opacity="1"></stop><stop offset="85.55555555555554%" stop-color="#e68ca5" stop-opacity="1"></stop></linearGradient></defs><defs><linearGradient id="grad1_5" x1="43.8%" y1="100%" x2="100%" y2="0%"><stop offset="14.444444444444446%" stop-color="#eea9bb" stop-opacity="1"></stop><stop offset="85.55555555555554%" stop-color="#f5c6d1" stop-opacity="1"></stop></linearGradient></defs><defs><linearGradient id="grad1_6" x1="43.8%" y1="100%" x2="100%" y2="0%"><stop offset="14.444444444444446%" stop-color="#fbe2e8" stop-opacity="1"></stop><stop offset="85.55555555555554%" stop-color="#f5c6d1" stop-opacity="1"></stop></linearGradient></defs><defs><linearGradient id="grad1_7" x1="43.8%" y1="100%" x2="100%" y2="0%"><stop offset="14.444444444444446%" stop-color="#fbe2e8" stop-opacity="1"></stop><stop offset="85.55555555555554%" stop-color="#ffffff" stop-opacity="1"></stop></linearGradient></defs><defs><linearGradient id="grad2_0" x1="0%" y1="100%" x2="56.3%" y2="0%"><stop offset="14.444444444444446%" stop-color="#c62368" stop-opacity="1"></stop><stop offset="85.55555555555554%" stop-color="#c62368" stop-opacity="1"></stop></linearGradient></defs><defs><linearGradient id="grad2_1" x1="0%" y1="100%" x2="56.3%" y2="0%"><stop offset="14.444444444444446%" stop-color="#d24e7c" stop-opacity="1"></stop><stop offset="85.55555555555554%" stop-color="#c62368" stop-opacity="1"></stop></linearGradient></defs><defs><linearGradient id="grad2_2" x1="0%" y1="100%" x2="56.3%" y2="0%"><stop offset="14.444444444444446%" stop-color="#d24e7c" stop-opacity="1"></stop><stop offset="85.55555555555554%" stop-color="#dd6e90" stop-opacity="1"></stop></linearGradient></defs><defs><linearGradient id="grad2_3" x1="0%" y1="100%" x2="56.3%" y2="0%"><stop offset="14.444444444444446%" stop-color="#e68ca5" stop-opacity="1"></stop><stop offset="85.55555555555554%" stop-color="#dd6e90" stop-opacity="1"></stop></linearGradient></defs><defs><linearGradient id="grad2_4" x1="0%" y1="100%" x2="56.3%" y2="0%"><stop offset="14.444444444444446%" stop-color="#e68ca5" stop-opacity="1"></stop><stop offset="85.55555555555554%" stop-color="#eea9bb" stop-opacity="1"></stop></linearGradient></defs><defs><linearGradient id="grad2_5" x1="0%" y1="100%" x2="56.3%" y2="0%"><stop offset="14.444444444444446%" stop-color="#f5c6d1" stop-opacity="1"></stop><stop offset="85.55555555555554%" stop-color="#eea9bb" stop-opacity="1"></stop></linearGradient></defs><defs><linearGradient id="grad2_6" x1="0%" y1="100%" x2="56.3%" y2="0%"><stop offset="14.444444444444446%" stop-color="#f5c6d1" stop-opacity="1"></stop><stop offset="85.55555555555554%" stop-color="#fbe2e8" stop-opacity="1"></stop></linearGradient></defs><defs><linearGradient id="grad2_7" x1="0%" y1="100%" x2="56.3%" y2="0%"><stop offset="14.444444444444446%" stop-color="#ffffff" stop-opacity="1"></stop><stop offset="85.55555555555554%" stop-color="#fbe2e8" stop-opacity="1"></stop></linearGradient></defs><g transform="translate(960, 540)"><path d="M-486 0C-486 -69 -486.1 -138 -449 -186C-411.9 -234 -337.7 -260.9 -282.1 -282.1C-226.6 -303.4 -189.7 -319 -145.8 -352C-101.9 -385 -50.9 -435.5 0 -486L0 0Z" fill="#fdf1f3"></path><path d="M-425.2 0C-425.3 -60.4 -425.3 -120.8 -392.9 -162.7C-360.4 -204.7 -295.5 -228.3 -246.9 -246.9C-198.3 -265.5 -166 -279.1 -127.6 -308C-89.2 -336.9 -44.6 -381.1 0 -425.2L0 0Z" fill="#f8d4dd"></path><path d="M-364.5 0C-364.5 -51.8 -364.6 -103.5 -336.8 -139.5C-308.9 -175.5 -253.3 -195.7 -211.6 -211.6C-169.9 -227.5 -142.3 -239.2 -109.4 -264C-76.4 -288.8 -38.2 -326.6 0 -364.5L0 0Z" fill="#f2b7c6"></path><path d="M-303.7 0C-303.8 -43.1 -303.8 -86.3 -280.6 -116.2C-257.4 -146.2 -211.1 -163.1 -176.3 -176.3C-141.6 -189.6 -118.6 -199.4 -91.1 -220C-63.7 -240.6 -31.8 -272.2 0 -303.7L0 0Z" fill="#ea9bb0"></path><path d="M-243 0C-243 -34.5 -243 -69 -224.5 -93C-206 -117 -168.8 -130.4 -141.1 -141.1C-113.3 -151.7 -94.9 -159.5 -72.9 -176C-50.9 -192.5 -25.5 -217.8 0 -243L0 0Z" fill="#e27d9b"></path><path d="M-182.2 0C-182.3 -25.9 -182.3 -51.8 -168.4 -69.7C-154.5 -87.7 -126.6 -97.8 -105.8 -105.8C-85 -113.8 -71.1 -119.6 -54.7 -132C-38.2 -144.4 -19.1 -163.3 0 -182.2L0 0Z" fill="#d75f86"></path><path d="M-121.5 0C-121.5 -17.3 -121.5 -34.5 -112.3 -46.5C-103 -58.5 -84.4 -65.2 -70.5 -70.5C-56.6 -75.8 -47.4 -79.7 -36.5 -88C-25.5 -96.3 -12.7 -108.9 0 -121.5L0 0Z" fill="#cc3b72"></path><path d="M-60.7 0C-60.8 -8.6 -60.8 -17.3 -56.1 -23.2C-51.5 -29.2 -42.2 -32.6 -35.3 -35.3C-28.3 -37.9 -23.7 -39.9 -18.2 -44C-12.7 -48.1 -6.4 -54.4 0 -60.7L0 0Z" fill="#c62368"></path></g><g transform="translate(0, 0)"><path d="M486 0C440.4 43.4 394.8 86.9 381.6 158C368.4 229.2 387.6 328.1 343.7 343.7C299.7 359.2 192.6 291.4 124.8 301.2C56.9 311 28.5 398.5 0 486L0 0Z" fill="#fdf1f3"></path><path d="M425.3 0C385.3 38 345.4 76 333.9 138.3C322.3 200.6 339.2 287.1 300.7 300.7C262.2 314.3 168.5 254.9 109.2 263.5C49.8 272.1 24.9 348.7 0 425.3L0 0Z" fill="#f8d4dd"></path><path d="M364.5 0C330.3 32.6 296.1 65.2 286.2 118.5C276.3 171.9 290.7 246.1 257.7 257.7C224.8 269.4 144.4 218.5 93.6 225.9C42.7 233.3 21.4 298.9 0 364.5L0 0Z" fill="#f2b7c6"></path><path d="M303.8 0C275.2 27.1 246.7 54.3 238.5 98.8C230.2 143.3 242.3 205.1 214.8 214.8C187.3 224.5 120.4 182.1 78 188.2C35.6 194.4 17.8 249.1 0 303.8L0 0Z" fill="#ea9bb0"></path><path d="M243 0C220.2 21.7 197.4 43.4 190.8 79C184.2 114.6 193.8 164.1 171.8 171.8C149.9 179.6 96.3 145.7 62.4 150.6C28.5 155.5 14.2 199.3 0 243L0 0Z" fill="#e27d9b"></path><path d="M182.3 0C165.1 16.3 148 32.6 143.1 59.3C138.1 86 145.4 123 128.9 128.9C112.4 134.7 72.2 109.3 46.8 112.9C21.4 116.6 10.7 149.4 0 182.3L0 0Z" fill="#d75f86"></path><path d="M121.5 0C110.1 10.9 98.7 21.7 95.4 39.5C92.1 57.3 96.9 82 85.9 85.9C74.9 89.8 48.1 72.8 31.2 75.3C14.2 77.8 7.1 99.6 0 121.5L0 0Z" fill="#cc3b72"></path><path d="M60.8 0C55 5.4 49.3 10.9 47.7 19.8C46 28.7 48.5 41 43 43C37.5 44.9 24.1 36.4 15.6 37.6C7.1 38.9 3.6 49.8 0 60.8L0 0Z" fill="#c62368"></path></g></svg>