<svg id="visual" viewBox="0 0 540 960" width="540" height="960" xmlns="http://www.w3.org/2000/svg" xmlns:xlink="http://www.w3.org/1999/xlink" version="1.1"><path d="M255 0L285 107L256 213L283 320L226 427L269 533L307 640L277 747L232 853L292 960L0 960L0 853L0 747L0 640L0 533L0 427L0 320L0 213L0 107L0 0Z" fill="#b8ffd1"></path><path d="M226 0L241 107L197 213L173 320L226 427L205 533L239 640L225 747L172 853L242 960L0 960L0 853L0 747L0 640L0 533L0 427L0 320L0 213L0 107L0 0Z" fill="#9ff2ba"></path><path d="M156 0L147 107L170 213L166 320L113 427L156 533L175 640L126 747L143 853L141 960L0 960L0 853L0 747L0 640L0 533L0 427L0 320L0 213L0 107L0 0Z" fill="#87e6a3"></path><path d="M78 0L92 107L101 213L55 320L57 427L90 533L71 640L91 747L69 853L98 960L0 960L0 853L0 747L0 640L0 533L0 427L0 320L0 213L0 107L0 0Z" fill="#6fd98c"></path></svg>