<svg id="visual" viewBox="0 0 960 300" width="960" height="300" xmlns="http://www.w3.org/2000/svg" xmlns:xlink="http://www.w3.org/1999/xlink" version="1.1"><path d="M0 196L22.8 197C45.7 198 91.3 200 137 202C182.7 204 228.3 206 274 207.3C319.7 208.7 365.3 209.3 411.2 207.3C457 205.3 503 200.7 548.8 199C594.7 197.3 640.3 198.7 686 197.2C731.7 195.7 777.3 191.3 823 191.2C868.7 191 914.3 195 937.2 197L960 199L960 301L937.2 301C914.3 301 868.7 301 823 301C777.3 301 731.7 301 686 301C640.3 301 594.7 301 548.8 301C503 301 457 301 411.2 301C365.3 301 319.7 301 274 301C228.3 301 182.7 301 137 301C91.3 301 45.7 301 22.8 301L0 301Z" fill="#d9f5e3"></path><path d="M0 199L22.8 204.3C45.7 209.7 91.3 220.3 137 221.3C182.7 222.3 228.3 213.7 274 209C319.7 204.3 365.3 203.7 411.2 207.8C457 212 503 221 548.8 226.8C594.7 232.7 640.3 235.3 686 233.5C731.7 231.7 777.3 225.3 823 223.8C868.7 222.3 914.3 225.7 937.2 227.3L960 229L960 301L937.2 301C914.3 301 868.7 301 823 301C777.3 301 731.7 301 686 301C640.3 301 594.7 301 548.8 301C503 301 457 301 411.2 301C365.3 301 319.7 301 274 301C228.3 301 182.7 301 137 301C91.3 301 45.7 301 22.8 301L0 301Z" fill="#beefce"></path><path d="M0 230L22.8 233.2C45.7 236.3 91.3 242.7 137 241.8C182.7 241 228.3 233 274 228.2C319.7 223.3 365.3 221.7 411.2 226.2C457 230.7 503 241.3 548.8 241.3C594.7 241.3 640.3 230.7 686 227.2C731.7 223.7 777.3 227.3 823 229.8C868.7 232.3 914.3 233.7 937.2 234.3L960 235L960 301L937.2 301C914.3 301 868.7 301 823 301C777.3 301 731.7 301 686 301C640.3 301 594.7 301 548.8 301C503 301 457 301 411.2 301C365.3 301 319.7 301 274 301C228.3 301 182.7 301 137 301C91.3 301 45.7 301 22.8 301L0 301Z" fill="#a4e8b9"></path><path d="M0 264L22.8 260.5C45.7 257 91.3 250 137 248.3C182.7 246.7 228.3 250.3 274 251.7C319.7 253 365.3 252 411.2 253.8C457 255.7 503 260.3 548.8 259C594.7 257.7 640.3 250.3 686 248.7C731.7 247 777.3 251 823 253.5C868.7 256 914.3 257 937.2 257.5L960 258L960 301L937.2 301C914.3 301 868.7 301 823 301C777.3 301 731.7 301 686 301C640.3 301 594.7 301 548.8 301C503 301 457 301 411.2 301C365.3 301 319.7 301 274 301C228.3 301 182.7 301 137 301C91.3 301 45.7 301 22.8 301L0 301Z" fill="#8ae1a3"></path><path d="M0 262L22.8 262C45.7 262 91.3 262 137 262.7C182.7 263.3 228.3 264.7 274 266.7C319.7 268.7 365.3 271.3 411.2 272.7C457 274 503 274 548.8 273.2C594.7 272.3 640.3 270.7 686 269.2C731.7 267.7 777.3 266.3 823 269C868.7 271.7 914.3 278.3 937.2 281.7L960 285L960 301L937.2 301C914.3 301 868.7 301 823 301C777.3 301 731.7 301 686 301C640.3 301 594.7 301 548.8 301C503 301 457 301 411.2 301C365.3 301 319.7 301 274 301C228.3 301 182.7 301 137 301C91.3 301 45.7 301 22.8 301L0 301Z" fill="#6fd98c"></path></svg>