<svg id="visual" viewBox="0 0 960 540" width="960" height="540" xmlns="http://www.w3.org/2000/svg" xmlns:xlink="http://www.w3.org/1999/xlink" version="1.1"><path d="M0 382L11.5 377.7C23 373.3 46 364.7 68.8 364.2C91.7 363.7 114.3 371.3 137.2 370.7C160 370 183 361 205.8 358.2C228.7 355.3 251.3 358.7 274.2 359.8C297 361 320 360 342.8 360.5C365.7 361 388.3 363 411.2 362.7C434 362.3 457 359.7 480 363.3C503 367 526 377 548.8 384C571.7 391 594.3 395 617.2 390.7C640 386.3 663 373.7 685.8 369.7C708.7 365.7 731.3 370.3 754.2 375.2C777 380 800 385 822.8 382C845.7 379 868.3 368 891.2 366.7C914 365.3 937 373.7 948.5 377.8L960 382L960 0L948.5 0C937 0 914 0 891.2 0C868.3 0 845.7 0 822.8 0C800 0 777 0 754.2 0C731.3 0 708.7 0 685.8 0C663 0 640 0 617.2 0C594.3 0 571.7 0 548.8 0C526 0 503 0 480 0C457 0 434 0 411.2 0C388.3 0 365.7 0 342.8 0C320 0 297 0 274.2 0C251.3 0 228.7 0 205.8 0C183 0 160 0 137.2 0C114.3 0 91.7 0 68.8 0C46 0 23 0 11.5 0L0 0Z" fill="#e2ffec"></path><path d="M0 301L11.5 304.2C23 307.3 46 313.7 68.8 318.2C91.7 322.7 114.3 325.3 137.2 324.2C160 323 183 318 205.8 316.5C228.7 315 251.3 317 274.2 316.8C297 316.7 320 314.3 342.8 312.8C365.7 311.3 388.3 310.7 411.2 312.7C434 314.7 457 319.3 480 325C503 330.7 526 337.3 548.8 334C571.7 330.7 594.3 317.3 617.2 316.3C640 315.3 663 326.7 685.8 331.3C708.7 336 731.3 334 754.2 334.7C777 335.3 800 338.7 822.8 335.7C845.7 332.7 868.3 323.3 891.2 318.2C914 313 937 312 948.5 311.5L960 311L960 0L948.5 0C937 0 914 0 891.2 0C868.3 0 845.7 0 822.8 0C800 0 777 0 754.2 0C731.3 0 708.7 0 685.8 0C663 0 640 0 617.2 0C594.3 0 571.7 0 548.8 0C526 0 503 0 480 0C457 0 434 0 411.2 0C388.3 0 365.7 0 342.8 0C320 0 297 0 274.2 0C251.3 0 228.7 0 205.8 0C183 0 160 0 137.2 0C114.3 0 91.7 0 68.8 0C46 0 23 0 11.5 0L0 0Z" fill="#caf7d9"></path><path d="M0 264L11.5 269C23 274 46 284 68.8 281.5C91.7 279 114.3 264 137.2 262.8C160 261.7 183 274.3 205.8 275.2C228.7 276 251.3 265 274.2 258.7C297 252.3 320 250.7 342.8 252C365.7 253.3 388.3 257.7 411.2 265.3C434 273 457 284 480 285.3C503 286.7 526 278.3 548.8 277.2C571.7 276 594.3 282 617.2 283.2C640 284.3 663 280.7 685.8 281.3C708.7 282 731.3 287 754.2 288.2C777 289.3 800 286.7 822.8 280.5C845.7 274.3 868.3 264.7 891.2 259.3C914 254 937 253 948.5 252.5L960 252L960 0L948.5 0C937 0 914 0 891.2 0C868.3 0 845.7 0 822.8 0C800 0 777 0 754.2 0C731.3 0 708.7 0 685.8 0C663 0 640 0 617.2 0C594.3 0 571.7 0 548.8 0C526 0 503 0 480 0C457 0 434 0 411.2 0C388.3 0 365.7 0 342.8 0C320 0 297 0 274.2 0C251.3 0 228.7 0 205.8 0C183 0 160 0 137.2 0C114.3 0 91.7 0 68.8 0C46 0 23 0 11.5 0L0 0Z" fill="#b2eec5"></path><path d="M0 217L11.5 217.8C23 218.7 46 220.3 68.8 219.5C91.7 218.7 114.3 215.3 137.2 215.2C160 215 183 218 205.8 221.8C228.7 225.7 251.3 230.3 274.2 230C297 229.7 320 224.3 342.8 224.3C365.7 224.3 388.3 229.7 411.2 229.2C434 228.7 457 222.3 480 221.3C503 220.3 526 224.7 548.8 226.3C571.7 228 594.3 227 617.2 228C640 229 663 232 685.8 226.8C708.7 221.7 731.3 208.3 754.2 202C777 195.7 800 196.3 822.8 195.2C845.7 194 868.3 191 891.2 193.3C914 195.7 937 203.3 948.5 207.2L960 211L960 0L948.5 0C937 0 914 0 891.2 0C868.3 0 845.7 0 822.8 0C800 0 777 0 754.2 0C731.3 0 708.7 0 685.8 0C663 0 640 0 617.2 0C594.3 0 571.7 0 548.8 0C526 0 503 0 480 0C457 0 434 0 411.2 0C388.3 0 365.7 0 342.8 0C320 0 297 0 274.2 0C251.3 0 228.7 0 205.8 0C183 0 160 0 137.2 0C114.3 0 91.7 0 68.8 0C46 0 23 0 11.5 0L0 0Z" fill="#9ae5b1"></path><path d="M0 137L11.5 141C23 145 46 153 68.8 159C91.7 165 114.3 169 137.2 165.5C160 162 183 151 205.8 151.2C228.7 151.3 251.3 162.7 274.2 164.8C297 167 320 160 342.8 159.8C365.7 159.7 388.3 166.3 411.2 169.8C434 173.3 457 173.7 480 174.3C503 175 526 176 548.8 176.7C571.7 177.3 594.3 177.7 617.2 176.5C640 175.3 663 172.7 685.8 166.3C708.7 160 731.3 150 754.2 152.5C777 155 800 170 822.8 175.3C845.7 180.7 868.3 176.3 891.2 171.7C914 167 937 162 948.5 159.5L960 157L960 0L948.5 0C937 0 914 0 891.2 0C868.3 0 845.7 0 822.8 0C800 0 777 0 754.2 0C731.3 0 708.7 0 685.8 0C663 0 640 0 617.2 0C594.3 0 571.7 0 548.8 0C526 0 503 0 480 0C457 0 434 0 411.2 0C388.3 0 365.7 0 342.8 0C320 0 297 0 274.2 0C251.3 0 228.7 0 205.8 0C183 0 160 0 137.2 0C114.3 0 91.7 0 68.8 0C46 0 23 0 11.5 0L0 0Z" fill="#82dc9c"></path><path d="M0 104L11.5 100C23 96 46 88 68.8 84.5C91.7 81 114.3 82 137.2 89.7C160 97.3 183 111.7 205.8 117.3C228.7 123 251.3 120 274.2 119.2C297 118.3 320 119.7 342.8 122.3C365.7 125 388.3 129 411.2 128.2C434 127.3 457 121.7 480 116C503 110.3 526 104.7 548.8 106.2C571.7 107.7 594.3 116.3 617.2 116.2C640 116 663 107 685.8 106C708.7 105 731.3 112 754.2 116.8C777 121.7 800 124.3 822.8 125.3C845.7 126.3 868.3 125.7 891.2 126.3C914 127 937 129 948.5 130L960 131L960 0L948.5 0C937 0 914 0 891.2 0C868.3 0 845.7 0 822.8 0C800 0 777 0 754.2 0C731.3 0 708.7 0 685.8 0C663 0 640 0 617.2 0C594.3 0 571.7 0 548.8 0C526 0 503 0 480 0C457 0 434 0 411.2 0C388.3 0 365.7 0 342.8 0C320 0 297 0 274.2 0C251.3 0 228.7 0 205.8 0C183 0 160 0 137.2 0C114.3 0 91.7 0 68.8 0C46 0 23 0 11.5 0L0 0Z" fill="#69d287"></path><path d="M0 73L11.5 65.5C23 58 46 43 68.8 36C91.7 29 114.3 30 137.2 35C160 40 183 49 205.8 49C228.7 49 251.3 40 274.2 43.5C297 47 320 63 342.8 70.3C365.7 77.7 388.3 76.3 411.2 69.3C434 62.3 457 49.7 480 42.7C503 35.7 526 34.3 548.8 33.3C571.7 32.3 594.3 31.7 617.2 30.5C640 29.3 663 27.7 685.8 32.5C708.7 37.3 731.3 48.7 754.2 52.7C777 56.7 800 53.3 822.8 50.5C845.7 47.7 868.3 45.3 891.2 44.5C914 43.7 937 44.3 948.5 44.7L960 45L960 0L948.5 0C937 0 914 0 891.2 0C868.3 0 845.7 0 822.8 0C800 0 777 0 754.2 0C731.3 0 708.7 0 685.8 0C663 0 640 0 617.2 0C594.3 0 571.7 0 548.8 0C526 0 503 0 480 0C457 0 434 0 411.2 0C388.3 0 365.7 0 342.8 0C320 0 297 0 274.2 0C251.3 0 228.7 0 205.8 0C183 0 160 0 137.2 0C114.3 0 91.7 0 68.8 0C46 0 23 0 11.5 0L0 0Z" fill="#4dc872"></path></svg>