<svg id="visual" viewBox="0 0 960 540" width="960" height="540" xmlns="http://www.w3.org/2000/svg" xmlns:xlink="http://www.w3.org/1999/xlink" version="1.1"><path d="M534 0L531 60L571 120L607 180L502 240L631 300L610 360L603 420L518 480L544 540L0 540L0 480L0 420L0 360L0 300L0 240L0 180L0 120L0 60L0 0Z" fill="#b8ffd1"></path><path d="M472 0L433 60L533 120L448 180L510 240L467 300L484 360L420 420L527 480L496 540L0 540L0 480L0 420L0 360L0 300L0 240L0 180L0 120L0 60L0 0Z" fill="#a9f7c3"></path><path d="M393 0L353 60L383 120L422 180L402 240L396 300L450 360L448 420L405 480L337 540L0 540L0 480L0 420L0 360L0 300L0 240L0 180L0 120L0 60L0 0Z" fill="#9af0b6"></path><path d="M312 0L310 60L345 120L327 180L339 240L245 300L293 360L353 420L264 480L340 540L0 540L0 480L0 420L0 360L0 300L0 240L0 180L0 120L0 60L0 0Z" fill="#8ce8a8"></path><path d="M184 0L208 60L189 120L170 180L198 240L169 300L233 360L229 420L198 480L213 540L0 540L0 480L0 420L0 360L0 300L0 240L0 180L0 120L0 60L0 0Z" fill="#7de19a"></path><path d="M98 0L109 60L149 120L96 180L131 240L130 300L143 360L128 420L120 480L95 540L0 540L0 480L0 420L0 360L0 300L0 240L0 180L0 120L0 60L0 0Z" fill="#6fd98c"></path></svg>