<svg id="visual" viewBox="0 0 960 540" width="960" height="540" xmlns="http://www.w3.org/2000/svg" xmlns:xlink="http://www.w3.org/1999/xlink" version="1.1"><path d="M0 209L11.5 211.8C23 214.7 46 220.3 68.8 216.3C91.7 212.3 114.3 198.7 137.2 197.2C160 195.7 183 206.3 205.8 215.2C228.7 224 251.3 231 274.2 231.2C297 231.3 320 224.7 342.8 217.7C365.7 210.7 388.3 203.3 411.2 202.3C434 201.3 457 206.7 480 205.8C503 205 526 198 548.8 200.5C571.7 203 594.3 215 617.2 215.3C640 215.7 663 204.3 685.8 200.3C708.7 196.3 731.3 199.7 754.2 200C777 200.3 800 197.7 822.8 196.2C845.7 194.7 868.3 194.3 891.2 197C914 199.7 937 205.3 948.5 208.2L960 211L960 0L948.5 0C937 0 914 0 891.2 0C868.3 0 845.7 0 822.8 0C800 0 777 0 754.2 0C731.3 0 708.7 0 685.8 0C663 0 640 0 617.2 0C594.3 0 571.7 0 548.8 0C526 0 503 0 480 0C457 0 434 0 411.2 0C388.3 0 365.7 0 342.8 0C320 0 297 0 274.2 0C251.3 0 228.7 0 205.8 0C183 0 160 0 137.2 0C114.3 0 91.7 0 68.8 0C46 0 23 0 11.5 0L0 0Z" fill="#e2ffec"></path><path d="M0 191L11.5 188.7C23 186.3 46 181.7 68.8 183.5C91.7 185.3 114.3 193.7 137.2 191.7C160 189.7 183 177.3 205.8 174.3C228.7 171.3 251.3 177.7 274.2 179.2C297 180.7 320 177.3 342.8 172.7C365.7 168 388.3 162 411.2 160.7C434 159.3 457 162.7 480 162.8C503 163 526 160 548.8 159.3C571.7 158.7 594.3 160.3 617.2 160C640 159.7 663 157.3 685.8 163C708.7 168.7 731.3 182.3 754.2 182.5C777 182.7 800 169.3 822.8 166.7C845.7 164 868.3 172 891.2 173.2C914 174.3 937 168.7 948.5 165.8L960 163L960 0L948.5 0C937 0 914 0 891.2 0C868.3 0 845.7 0 822.8 0C800 0 777 0 754.2 0C731.3 0 708.7 0 685.8 0C663 0 640 0 617.2 0C594.3 0 571.7 0 548.8 0C526 0 503 0 480 0C457 0 434 0 411.2 0C388.3 0 365.7 0 342.8 0C320 0 297 0 274.2 0C251.3 0 228.7 0 205.8 0C183 0 160 0 137.2 0C114.3 0 91.7 0 68.8 0C46 0 23 0 11.5 0L0 0Z" fill="#c5f5d5"></path><path d="M0 135L11.5 134.3C23 133.7 46 132.3 68.8 137.7C91.7 143 114.3 155 137.2 153.8C160 152.7 183 138.3 205.8 135.5C228.7 132.7 251.3 141.3 274.2 142.2C297 143 320 136 342.8 136.2C365.7 136.3 388.3 143.7 411.2 143.2C434 142.7 457 134.3 480 130.8C503 127.3 526 128.7 548.8 135.5C571.7 142.3 594.3 154.7 617.2 157C640 159.3 663 151.7 685.8 150.7C708.7 149.7 731.3 155.3 754.2 155C777 154.7 800 148.3 822.8 143C845.7 137.7 868.3 133.3 891.2 137.2C914 141 937 153 948.5 159L960 165L960 0L948.5 0C937 0 914 0 891.2 0C868.3 0 845.7 0 822.8 0C800 0 777 0 754.2 0C731.3 0 708.7 0 685.8 0C663 0 640 0 617.2 0C594.3 0 571.7 0 548.8 0C526 0 503 0 480 0C457 0 434 0 411.2 0C388.3 0 365.7 0 342.8 0C320 0 297 0 274.2 0C251.3 0 228.7 0 205.8 0C183 0 160 0 137.2 0C114.3 0 91.7 0 68.8 0C46 0 23 0 11.5 0L0 0Z" fill="#a8eabd"></path><path d="M0 114L11.5 115.8C23 117.7 46 121.3 68.8 119.8C91.7 118.3 114.3 111.7 137.2 107.3C160 103 183 101 205.8 104.8C228.7 108.7 251.3 118.3 274.2 119.7C297 121 320 114 342.8 107C365.7 100 388.3 93 411.2 92.8C434 92.7 457 99.3 480 102.7C503 106 526 106 548.8 106.7C571.7 107.3 594.3 108.7 617.2 110C640 111.3 663 112.7 685.8 113.7C708.7 114.7 731.3 115.3 754.2 115.5C777 115.7 800 115.3 822.8 110.3C845.7 105.3 868.3 95.7 891.2 93.3C914 91 937 96 948.5 98.5L960 101L960 0L948.5 0C937 0 914 0 891.2 0C868.3 0 845.7 0 822.8 0C800 0 777 0 754.2 0C731.3 0 708.7 0 685.8 0C663 0 640 0 617.2 0C594.3 0 571.7 0 548.8 0C526 0 503 0 480 0C457 0 434 0 411.2 0C388.3 0 365.7 0 342.8 0C320 0 297 0 274.2 0C251.3 0 228.7 0 205.8 0C183 0 160 0 137.2 0C114.3 0 91.7 0 68.8 0C46 0 23 0 11.5 0L0 0Z" fill="#8cdfa5"></path><path d="M0 81L11.5 80.3C23 79.7 46 78.3 68.8 78.2C91.7 78 114.3 79 137.2 81.3C160 83.7 183 87.3 205.8 87.3C228.7 87.3 251.3 83.7 274.2 77.8C297 72 320 64 342.8 65.8C365.7 67.7 388.3 79.3 411.2 82C434 84.7 457 78.3 480 76.3C503 74.3 526 76.7 548.8 73.8C571.7 71 594.3 63 617.2 58.5C640 54 663 53 685.8 58.3C708.7 63.7 731.3 75.3 754.2 81.7C777 88 800 89 822.8 84.3C845.7 79.7 868.3 69.3 891.2 64.7C914 60 937 61 948.5 61.5L960 62L960 0L948.5 0C937 0 914 0 891.2 0C868.3 0 845.7 0 822.8 0C800 0 777 0 754.2 0C731.3 0 708.7 0 685.8 0C663 0 640 0 617.2 0C594.3 0 571.7 0 548.8 0C526 0 503 0 480 0C457 0 434 0 411.2 0C388.3 0 365.7 0 342.8 0C320 0 297 0 274.2 0C251.3 0 228.7 0 205.8 0C183 0 160 0 137.2 0C114.3 0 91.7 0 68.8 0C46 0 23 0 11.5 0L0 0Z" fill="#6ed48c"></path><path d="M0 39L11.5 35.8C23 32.7 46 26.3 68.8 27.8C91.7 29.3 114.3 38.7 137.2 40.5C160 42.3 183 36.7 205.8 36.5C228.7 36.3 251.3 41.7 274.2 43.5C297 45.3 320 43.7 342.8 43.2C365.7 42.7 388.3 43.3 411.2 44.2C434 45 457 46 480 44.2C503 42.3 526 37.7 548.8 38.7C571.7 39.7 594.3 46.3 617.2 49.8C640 53.3 663 53.7 685.8 48.2C708.7 42.7 731.3 31.3 754.2 28.5C777 25.7 800 31.3 822.8 31.3C845.7 31.3 868.3 25.7 891.2 25.2C914 24.7 937 29.3 948.5 31.7L960 34L960 0L948.5 0C937 0 914 0 891.2 0C868.3 0 845.7 0 822.8 0C800 0 777 0 754.2 0C731.3 0 708.7 0 685.8 0C663 0 640 0 617.2 0C594.3 0 571.7 0 548.8 0C526 0 503 0 480 0C457 0 434 0 411.2 0C388.3 0 365.7 0 342.8 0C320 0 297 0 274.2 0C251.3 0 228.7 0 205.8 0C183 0 160 0 137.2 0C114.3 0 91.7 0 68.8 0C46 0 23 0 11.5 0L0 0Z" fill="#4dc872"></path></svg>