<svg id="visual" viewBox="0 0 960 540" width="960" height="540" xmlns="http://www.w3.org/2000/svg" xmlns:xlink="http://www.w3.org/1999/xlink" version="1.1"><path d="M0 238L107 201L213 256L320 269L427 216L533 227L640 262L747 239L853 244L960 236L960 0L853 0L747 0L640 0L533 0L427 0L320 0L213 0L107 0L0 0Z" fill="#b8ffd1"></path><path d="M0 216L107 175L213 197L320 214L427 231L533 185L640 228L747 192L853 180L960 228L960 0L853 0L747 0L640 0L533 0L427 0L320 0L213 0L107 0L0 0Z" fill="#acf9c6"></path><path d="M0 188L107 164L213 168L320 160L427 170L533 189L640 145L747 172L853 178L960 151L960 0L853 0L747 0L640 0L533 0L427 0L320 0L213 0L107 0L0 0Z" fill="#9ff2ba"></path><path d="M0 162L107 133L213 123L320 113L427 161L533 116L640 161L747 148L853 128L960 129L960 0L853 0L747 0L640 0L533 0L427 0L320 0L213 0L107 0L0 0Z" fill="#93ecaf"></path><path d="M0 110L107 99L213 92L320 109L427 121L533 100L640 125L747 85L853 95L960 111L960 0L853 0L747 0L640 0L533 0L427 0L320 0L213 0L107 0L0 0Z" fill="#87e6a3"></path><path d="M0 60L107 75L213 58L320 88L427 76L533 55L640 81L747 68L853 69L960 68L960 0L853 0L747 0L640 0L533 0L427 0L320 0L213 0L107 0L0 0Z" fill="#7bdf98"></path><path d="M0 51L107 23L213 41L320 40L427 42L533 51L640 51L747 54L853 42L960 48L960 0L853 0L747 0L640 0L533 0L427 0L320 0L213 0L107 0L0 0Z" fill="#6fd98c"></path></svg>