<svg id="visual" viewBox="0 0 960 540" width="960" height="540" xmlns="http://www.w3.org/2000/svg" xmlns:xlink="http://www.w3.org/1999/xlink" version="1.1"><path d="M401 0L399 60L429 120L455 180L376 240L474 300L457 360L453 420L389 480L408 540L0 540L0 480L0 420L0 360L0 300L0 240L0 180L0 120L0 60L0 0Z" fill="#b8ffd1"></path><path d="M355 0L325 60L400 120L337 180L383 240L350 300L363 360L315 420L395 480L372 540L0 540L0 480L0 420L0 360L0 300L0 240L0 180L0 120L0 60L0 0Z" fill="#a9f7c3"></path><path d="M295 0L265 60L288 120L317 180L302 240L297 300L338 360L336 420L304 480L253 540L0 540L0 480L0 420L0 360L0 300L0 240L0 180L0 120L0 60L0 0Z" fill="#9af0b6"></path><path d="M234 0L233 60L259 120L245 180L254 240L184 300L220 360L265 420L198 480L255 540L0 540L0 480L0 420L0 360L0 300L0 240L0 180L0 120L0 60L0 0Z" fill="#8ce8a8"></path><path d="M138 0L156 60L142 120L128 180L149 240L127 300L175 360L172 420L149 480L160 540L0 540L0 480L0 420L0 360L0 300L0 240L0 180L0 120L0 60L0 0Z" fill="#7de19a"></path><path d="M74 0L82 60L112 120L73 180L99 240L98 300L108 360L96 420L90 480L72 540L0 540L0 480L0 420L0 360L0 300L0 240L0 180L0 120L0 60L0 0Z" fill="#6fd98c"></path></svg>