<svg id="visual" viewBox="0 0 960 300" width="960" height="300" xmlns="http://www.w3.org/2000/svg" xmlns:xlink="http://www.w3.org/1999/xlink" version="1.1"><path d="M439 0L437.7 3.8C436.3 7.7 433.7 15.3 428.3 23C423 30.7 415 38.3 408.3 46C401.7 53.7 396.3 61.3 405 69C413.7 76.7 436.3 84.3 446.2 92C456 99.7 453 107.3 454.8 115C456.7 122.7 463.3 130.3 456.7 138.2C450 146 430 154 425.2 161.8C420.3 169.7 430.7 177.3 437.2 185C443.7 192.7 446.3 200.3 441.3 208C436.3 215.7 423.7 223.3 417.2 231C410.7 238.7 410.3 246.3 412.2 254C414 261.7 418 269.3 422.8 277C427.7 284.7 433.3 292.3 436.2 296.2L439 300L0 300L0 296.2C0 292.3 0 284.7 0 277C0 269.3 0 261.7 0 254C0 246.3 0 238.7 0 231C0 223.3 0 215.7 0 208C0 200.3 0 192.7 0 185C0 177.3 0 169.7 0 161.8C0 154 0 146 0 138.2C0 130.3 0 122.7 0 115C0 107.3 0 99.7 0 92C0 84.3 0 76.7 0 69C0 61.3 0 53.7 0 46C0 38.3 0 30.7 0 23C0 15.3 0 7.7 0 3.8L0 0Z" fill="#d9f5e3"></path><path d="M370 0L369.7 3.8C369.3 7.7 368.7 15.3 367.8 23C367 30.7 366 38.3 366.5 46C367 53.7 369 61.3 373.5 69C378 76.7 385 84.3 386.5 92C388 99.7 384 107.3 379 115C374 122.7 368 130.3 364.7 138.2C361.3 146 360.7 154 360.7 161.8C360.7 169.7 361.3 177.3 364.8 185C368.3 192.7 374.7 200.3 376 208C377.3 215.7 373.7 223.3 374.2 231C374.7 238.7 379.3 246.3 385.5 254C391.7 261.7 399.3 269.3 397.2 277C395 284.7 383 292.3 377 296.2L371 300L0 300L0 296.2C0 292.3 0 284.7 0 277C0 269.3 0 261.7 0 254C0 246.3 0 238.7 0 231C0 223.3 0 215.7 0 208C0 200.3 0 192.7 0 185C0 177.3 0 169.7 0 161.8C0 154 0 146 0 138.2C0 130.3 0 122.7 0 115C0 107.3 0 99.7 0 92C0 84.3 0 76.7 0 69C0 61.3 0 53.7 0 46C0 38.3 0 30.7 0 23C0 15.3 0 7.7 0 3.8L0 0Z" fill="#c7f1d5"></path><path d="M316 0L314.8 3.8C313.7 7.7 311.3 15.3 318.2 23C325 30.7 341 38.3 347.8 46C354.7 53.7 352.3 61.3 350.8 69C349.3 76.7 348.7 84.3 348 92C347.3 99.7 346.7 107.3 337.7 115C328.7 122.7 311.3 130.3 308.2 138.2C305 146 316 154 320.7 161.8C325.3 169.7 323.7 177.3 322.8 185C322 192.7 322 200.3 324 208C326 215.7 330 223.3 330 231C330 238.7 326 246.3 327 254C328 261.7 334 269.3 329.2 277C324.3 284.7 308.7 292.3 300.8 296.2L293 300L0 300L0 296.2C0 292.3 0 284.7 0 277C0 269.3 0 261.7 0 254C0 246.3 0 238.7 0 231C0 223.3 0 215.7 0 208C0 200.3 0 192.7 0 185C0 177.3 0 169.7 0 161.8C0 154 0 146 0 138.2C0 130.3 0 122.7 0 115C0 107.3 0 99.7 0 92C0 84.3 0 76.7 0 69C0 61.3 0 53.7 0 46C0 38.3 0 30.7 0 23C0 15.3 0 7.7 0 3.8L0 0Z" fill="#b6edc7"></path><path d="M269 0L265.3 3.8C261.7 7.7 254.3 15.3 251 23C247.7 30.7 248.3 38.3 253.2 46C258 53.7 267 61.3 266.8 69C266.7 76.7 257.3 84.3 255.8 92C254.3 99.7 260.7 107.3 268.2 115C275.7 122.7 284.3 130.3 284 138.2C283.7 146 274.3 154 269 161.8C263.7 169.7 262.3 177.3 262.3 185C262.3 192.7 263.7 200.3 268.3 208C273 215.7 281 223.3 278 231C275 238.7 261 246.3 258.2 254C255.3 261.7 263.7 269.3 265.5 277C267.3 284.7 262.7 292.3 260.3 296.2L258 300L0 300L0 296.2C0 292.3 0 284.7 0 277C0 269.3 0 261.7 0 254C0 246.3 0 238.7 0 231C0 223.3 0 215.7 0 208C0 200.3 0 192.7 0 185C0 177.3 0 169.7 0 161.8C0 154 0 146 0 138.2C0 130.3 0 122.7 0 115C0 107.3 0 99.7 0 92C0 84.3 0 76.7 0 69C0 61.3 0 53.7 0 46C0 38.3 0 30.7 0 23C0 15.3 0 7.7 0 3.8L0 0Z" fill="#a4e8b9"></path><path d="M223 0L223 3.8C223 7.7 223 15.3 219.3 23C215.7 30.7 208.3 38.3 206.7 46C205 53.7 209 61.3 212 69C215 76.7 217 84.3 220.8 92C224.7 99.7 230.3 107.3 226.7 115C223 122.7 210 130.3 206.8 138.2C203.7 146 210.3 154 215.8 161.8C221.3 169.7 225.7 177.3 228.3 185C231 192.7 232 200.3 232 208C232 215.7 231 223.3 228.7 231C226.3 238.7 222.7 246.3 218.7 254C214.7 261.7 210.3 269.3 213.3 277C216.3 284.7 226.7 292.3 231.8 296.2L237 300L0 300L0 296.2C0 292.3 0 284.7 0 277C0 269.3 0 261.7 0 254C0 246.3 0 238.7 0 231C0 223.3 0 215.7 0 208C0 200.3 0 192.7 0 185C0 177.3 0 169.7 0 161.8C0 154 0 146 0 138.2C0 130.3 0 122.7 0 115C0 107.3 0 99.7 0 92C0 84.3 0 76.7 0 69C0 61.3 0 53.7 0 46C0 38.3 0 30.7 0 23C0 15.3 0 7.7 0 3.8L0 0Z" fill="#93e3aa"></path><path d="M170 0L169.5 3.8C169 7.7 168 15.3 165 23C162 30.7 157 38.3 153.8 46C150.7 53.7 149.3 61.3 150.5 69C151.7 76.7 155.3 84.3 159 92C162.7 99.7 166.3 107.3 168.7 115C171 122.7 172 130.3 171.2 138.2C170.3 146 167.7 154 168.2 161.8C168.7 169.7 172.3 177.3 174 185C175.7 192.7 175.3 200.3 174.3 208C173.3 215.7 171.7 223.3 172.3 231C173 238.7 176 246.3 176.8 254C177.7 261.7 176.3 269.3 173.3 277C170.3 284.7 165.7 292.3 163.3 296.2L161 300L0 300L0 296.2C0 292.3 0 284.7 0 277C0 269.3 0 261.7 0 254C0 246.3 0 238.7 0 231C0 223.3 0 215.7 0 208C0 200.3 0 192.7 0 185C0 177.3 0 169.7 0 161.8C0 154 0 146 0 138.2C0 130.3 0 122.7 0 115C0 107.3 0 99.7 0 92C0 84.3 0 76.7 0 69C0 61.3 0 53.7 0 46C0 38.3 0 30.7 0 23C0 15.3 0 7.7 0 3.8L0 0Z" fill="#81de9b"></path><path d="M103 0L103.3 3.8C103.7 7.7 104.3 15.3 105.5 23C106.7 30.7 108.3 38.3 110.5 46C112.7 53.7 115.3 61.3 116 69C116.7 76.7 115.3 84.3 114.3 92C113.3 99.7 112.7 107.3 111 115C109.3 122.7 106.7 130.3 104.5 138.2C102.3 146 100.7 154 102.2 161.8C103.7 169.7 108.3 177.3 109.5 185C110.7 192.7 108.3 200.3 106.7 208C105 215.7 104 223.3 106.2 231C108.3 238.7 113.7 246.3 115.2 254C116.7 261.7 114.3 269.3 111.7 277C109 284.7 106 292.3 104.5 296.2L103 300L0 300L0 296.2C0 292.3 0 284.7 0 277C0 269.3 0 261.7 0 254C0 246.3 0 238.7 0 231C0 223.3 0 215.7 0 208C0 200.3 0 192.7 0 185C0 177.3 0 169.7 0 161.8C0 154 0 146 0 138.2C0 130.3 0 122.7 0 115C0 107.3 0 99.7 0 92C0 84.3 0 76.7 0 69C0 61.3 0 53.7 0 46C0 38.3 0 30.7 0 23C0 15.3 0 7.7 0 3.8L0 0Z" fill="#6fd98c"></path></svg>