<svg id="visual" viewBox="0 0 960 540" width="960" height="540" xmlns="http://www.w3.org/2000/svg" xmlns:xlink="http://www.w3.org/1999/xlink" version="1.1"><path d="M0 287L11.5 283.7C23 280.3 46 273.7 68.8 273.2C91.7 272.7 114.3 278.3 137.2 277.8C160 277.3 183 270.7 205.8 268.7C228.7 266.7 251.3 269.3 274.2 270.2C297 271 320 270 342.8 270.2C365.7 270.3 388.3 271.7 411.2 271.5C434 271.3 457 269.7 480 272.5C503 275.3 526 282.7 548.8 287.8C571.7 293 594.3 296 617.2 292.8C640 289.7 663 280.3 685.8 277.3C708.7 274.3 731.3 277.7 754.2 281.2C777 284.7 800 288.3 822.8 286.2C845.7 284 868.3 276 891.2 275C914 274 937 280 948.5 283L960 286L960 0L948.5 0C937 0 914 0 891.2 0C868.3 0 845.7 0 822.8 0C800 0 777 0 754.2 0C731.3 0 708.7 0 685.8 0C663 0 640 0 617.2 0C594.3 0 571.7 0 548.8 0C526 0 503 0 480 0C457 0 434 0 411.2 0C388.3 0 365.7 0 342.8 0C320 0 297 0 274.2 0C251.3 0 228.7 0 205.8 0C183 0 160 0 137.2 0C114.3 0 91.7 0 68.8 0C46 0 23 0 11.5 0L0 0Z" fill="#e2ffec"></path><path d="M0 226L11.5 228.2C23 230.3 46 234.7 68.8 238C91.7 241.3 114.3 243.7 137.2 242.8C160 242 183 238 205.8 236.8C228.7 235.7 251.3 237.3 274.2 237.3C297 237.3 320 235.7 342.8 234.7C365.7 233.7 388.3 233.3 411.2 234.8C434 236.3 457 239.7 480 243.8C503 248 526 253 548.8 250.5C571.7 248 594.3 238 617.2 237.2C640 236.3 663 244.7 685.8 248.2C708.7 251.7 731.3 250.3 754.2 250.8C777 251.3 800 253.7 822.8 251.3C845.7 249 868.3 242 891.2 238.2C914 234.3 937 233.7 948.5 233.3L960 233L960 0L948.5 0C937 0 914 0 891.2 0C868.3 0 845.7 0 822.8 0C800 0 777 0 754.2 0C731.3 0 708.7 0 685.8 0C663 0 640 0 617.2 0C594.3 0 571.7 0 548.8 0C526 0 503 0 480 0C457 0 434 0 411.2 0C388.3 0 365.7 0 342.8 0C320 0 297 0 274.2 0C251.3 0 228.7 0 205.8 0C183 0 160 0 137.2 0C114.3 0 91.7 0 68.8 0C46 0 23 0 11.5 0L0 0Z" fill="#caf7d9"></path><path d="M0 198L11.5 201.7C23 205.3 46 212.7 68.8 210.7C91.7 208.7 114.3 197.3 137.2 196.5C160 195.7 183 205.3 205.8 206C228.7 206.7 251.3 198.3 274.2 193.5C297 188.7 320 187.3 342.8 188.3C365.7 189.3 388.3 192.7 411.2 198.5C434 204.3 457 212.7 480 213.7C503 214.7 526 208.3 548.8 207.5C571.7 206.7 594.3 211.3 617.2 212.2C640 213 663 210 685.8 210.5C708.7 211 731.3 215 754.2 216C777 217 800 215 822.8 210.3C845.7 205.7 868.3 198.3 891.2 194.2C914 190 937 189 948.5 188.5L960 188L960 0L948.5 0C937 0 914 0 891.2 0C868.3 0 845.7 0 822.8 0C800 0 777 0 754.2 0C731.3 0 708.7 0 685.8 0C663 0 640 0 617.2 0C594.3 0 571.7 0 548.8 0C526 0 503 0 480 0C457 0 434 0 411.2 0C388.3 0 365.7 0 342.8 0C320 0 297 0 274.2 0C251.3 0 228.7 0 205.8 0C183 0 160 0 137.2 0C114.3 0 91.7 0 68.8 0C46 0 23 0 11.5 0L0 0Z" fill="#b2eec5"></path><path d="M0 162L11.5 162.8C23 163.7 46 165.3 68.8 164.8C91.7 164.3 114.3 161.7 137.2 161.5C160 161.3 183 163.7 205.8 166.5C228.7 169.3 251.3 172.7 274.2 172.3C297 172 320 168 342.8 168C365.7 168 388.3 172 411.2 171.7C434 171.3 457 166.7 480 166C503 165.3 526 168.7 548.8 169.8C571.7 171 594.3 170 617.2 170.7C640 171.3 663 173.7 685.8 169.8C708.7 166 731.3 156 754.2 151.2C777 146.3 800 146.7 822.8 145.8C845.7 145 868.3 143 891.2 144.8C914 146.7 937 152.3 948.5 155.2L960 158L960 0L948.5 0C937 0 914 0 891.2 0C868.3 0 845.7 0 822.8 0C800 0 777 0 754.2 0C731.3 0 708.7 0 685.8 0C663 0 640 0 617.2 0C594.3 0 571.7 0 548.8 0C526 0 503 0 480 0C457 0 434 0 411.2 0C388.3 0 365.7 0 342.8 0C320 0 297 0 274.2 0C251.3 0 228.7 0 205.8 0C183 0 160 0 137.2 0C114.3 0 91.7 0 68.8 0C46 0 23 0 11.5 0L0 0Z" fill="#9ae5b1"></path><path d="M0 102L11.5 105C23 108 46 114 68.8 118.7C91.7 123.3 114.3 126.7 137.2 124.2C160 121.7 183 113.3 205.8 113.5C228.7 113.7 251.3 122.3 274.2 124C297 125.7 320 120.3 342.8 120C365.7 119.7 388.3 124.3 411.2 126.8C434 129.3 457 129.7 480 130.2C503 130.7 526 131.3 548.8 131.8C571.7 132.3 594.3 132.7 617.2 131.8C640 131 663 129 685.8 124.3C708.7 119.7 731.3 112.3 754.2 114.3C777 116.3 800 127.7 822.8 131.7C845.7 135.7 868.3 132.3 891.2 128.7C914 125 937 121 948.5 119L960 117L960 0L948.5 0C937 0 914 0 891.2 0C868.3 0 845.7 0 822.8 0C800 0 777 0 754.2 0C731.3 0 708.7 0 685.8 0C663 0 640 0 617.2 0C594.3 0 571.7 0 548.8 0C526 0 503 0 480 0C457 0 434 0 411.2 0C388.3 0 365.7 0 342.8 0C320 0 297 0 274.2 0C251.3 0 228.7 0 205.8 0C183 0 160 0 137.2 0C114.3 0 91.7 0 68.8 0C46 0 23 0 11.5 0L0 0Z" fill="#82dc9c"></path><path d="M0 78L11.5 75C23 72 46 66 68.8 63.3C91.7 60.7 114.3 61.3 137.2 67C160 72.7 183 83.3 205.8 87.5C228.7 91.7 251.3 89.3 274.2 88.8C297 88.3 320 89.7 342.8 91.7C365.7 93.7 388.3 96.3 411.2 95.5C434 94.7 457 90.3 480 86.2C503 82 526 78 548.8 79.2C571.7 80.3 594.3 86.7 617.2 86.5C640 86.3 663 79.7 685.8 79C708.7 78.3 731.3 83.7 754.2 87.3C777 91 800 93 822.8 93.7C845.7 94.3 868.3 93.7 891.2 94.2C914 94.7 937 96.3 948.5 97.2L960 98L960 0L948.5 0C937 0 914 0 891.2 0C868.3 0 845.7 0 822.8 0C800 0 777 0 754.2 0C731.3 0 708.7 0 685.8 0C663 0 640 0 617.2 0C594.3 0 571.7 0 548.8 0C526 0 503 0 480 0C457 0 434 0 411.2 0C388.3 0 365.7 0 342.8 0C320 0 297 0 274.2 0C251.3 0 228.7 0 205.8 0C183 0 160 0 137.2 0C114.3 0 91.7 0 68.8 0C46 0 23 0 11.5 0L0 0Z" fill="#69d287"></path><path d="M0 54L11.5 48.5C23 43 46 32 68.8 26.8C91.7 21.7 114.3 22.3 137.2 26C160 29.7 183 36.3 205.8 36.3C228.7 36.3 251.3 29.7 274.2 32.3C297 35 320 47 342.8 52.5C365.7 58 388.3 57 411.2 51.8C434 46.7 457 37.3 480 32.2C503 27 526 26 548.8 25.2C571.7 24.3 594.3 23.7 617.2 22.7C640 21.7 663 20.3 685.8 24C708.7 27.7 731.3 36.3 754.2 39.3C777 42.3 800 39.7 822.8 37.5C845.7 35.3 868.3 33.7 891.2 33.2C914 32.7 937 33.3 948.5 33.7L960 34L960 0L948.5 0C937 0 914 0 891.2 0C868.3 0 845.7 0 822.8 0C800 0 777 0 754.2 0C731.3 0 708.7 0 685.8 0C663 0 640 0 617.2 0C594.3 0 571.7 0 548.8 0C526 0 503 0 480 0C457 0 434 0 411.2 0C388.3 0 365.7 0 342.8 0C320 0 297 0 274.2 0C251.3 0 228.7 0 205.8 0C183 0 160 0 137.2 0C114.3 0 91.7 0 68.8 0C46 0 23 0 11.5 0L0 0Z" fill="#4dc872"></path></svg>