<svg id="visual" viewBox="0 0 960 300" width="960" height="300" xmlns="http://www.w3.org/2000/svg" xmlns:xlink="http://www.w3.org/1999/xlink" version="1.1"><path d="M520 0L536.3 7.2C552.7 14.3 585.3 28.7 583.5 43C581.7 57.3 545.3 71.7 524.7 86C504 100.3 499 114.7 500.7 128.8C502.3 143 510.7 157 530.7 171.2C550.7 185.3 582.3 199.7 594.7 214C607 228.3 600 242.7 574.7 257C549.3 271.3 505.7 285.7 483.8 292.8L462 300L0 300L0 292.8C0 285.7 0 271.3 0 257C0 242.7 0 228.3 0 214C0 199.7 0 185.3 0 171.2C0 157 0 143 0 128.8C0 114.7 0 100.3 0 86C0 71.7 0 57.3 0 43C0 28.7 0 14.3 0 7.2L0 0Z" fill="#d9f5e3"></path><path d="M481 0L462.8 7.2C444.7 14.3 408.3 28.7 393.7 43C379 57.3 386 71.7 395.5 86C405 100.3 417 114.7 425.8 128.8C434.7 143 440.3 157 430.2 171.2C420 185.3 394 199.7 396.8 214C399.7 228.3 431.3 242.7 448.8 257C466.3 271.3 469.7 285.7 471.3 292.8L473 300L0 300L0 292.8C0 285.7 0 271.3 0 257C0 242.7 0 228.3 0 214C0 199.7 0 185.3 0 171.2C0 157 0 143 0 128.8C0 114.7 0 100.3 0 86C0 71.7 0 57.3 0 43C0 28.7 0 14.3 0 7.2L0 0Z" fill="#b6edc7"></path><path d="M255 0L264.5 7.2C274 14.3 293 28.7 308.7 43C324.3 57.3 336.7 71.7 340.7 86C344.7 100.3 340.3 114.7 335.3 128.8C330.3 143 324.7 157 322.7 171.2C320.7 185.3 322.3 199.7 315.5 214C308.7 228.3 293.3 242.7 294.3 257C295.3 271.3 312.7 285.7 321.3 292.8L330 300L0 300L0 292.8C0 285.7 0 271.3 0 257C0 242.7 0 228.3 0 214C0 199.7 0 185.3 0 171.2C0 157 0 143 0 128.8C0 114.7 0 100.3 0 86C0 71.7 0 57.3 0 43C0 28.7 0 14.3 0 7.2L0 0Z" fill="#93e3aa"></path><path d="M227 0L218.2 7.2C209.3 14.3 191.7 28.7 184.8 43C178 57.3 182 71.7 191.3 86C200.7 100.3 215.3 114.7 219.5 128.8C223.7 143 217.3 157 211.8 171.2C206.3 185.3 201.7 199.7 193.8 214C186 228.3 175 242.7 173.3 257C171.7 271.3 179.3 285.7 183.2 292.8L187 300L0 300L0 292.8C0 285.7 0 271.3 0 257C0 242.7 0 228.3 0 214C0 199.7 0 185.3 0 171.2C0 157 0 143 0 128.8C0 114.7 0 100.3 0 86C0 71.7 0 57.3 0 43C0 28.7 0 14.3 0 7.2L0 0Z" fill="#6fd98c"></path></svg>