<svg id="visual" viewBox="0 0 960 300" width="960" height="300" xmlns="http://www.w3.org/2000/svg" xmlns:xlink="http://www.w3.org/1999/xlink" version="1.1"><path d="M424 0L429.2 3.5C434.3 7 444.7 14 440.5 21.2C436.3 28.3 417.7 35.7 417.7 42.8C417.7 50 436.3 57 442.5 64.2C448.7 71.3 442.3 78.7 444.5 85.8C446.7 93 457.3 100 462.3 107.2C467.3 114.3 466.7 121.7 462.2 128.8C457.7 136 449.3 143 447.3 150C445.3 157 449.7 164 444 171.2C438.3 178.3 422.7 185.7 421.8 192.8C421 200 435 207 443.7 214.2C452.3 221.3 455.7 228.7 459.3 235.8C463 243 467 250 460.3 257.2C453.7 264.3 436.3 271.7 432.2 278.8C428 286 437 293 441.5 296.5L446 300L0 300L0 296.5C0 293 0 286 0 278.8C0 271.7 0 264.3 0 257.2C0 250 0 243 0 235.8C0 228.7 0 221.3 0 214.2C0 207 0 200 0 192.8C0 185.7 0 178.3 0 171.2C0 164 0 157 0 150C0 143 0 136 0 128.8C0 121.7 0 114.3 0 107.2C0 100 0 93 0 85.8C0 78.7 0 71.3 0 64.2C0 57 0 50 0 42.8C0 35.7 0 28.3 0 21.2C0 14 0 7 0 3.5L0 0Z" fill="#e4f1e9"></path><path d="M394 0L385.5 3.5C377 7 360 14 359.5 21.2C359 28.3 375 35.7 381.2 42.8C387.3 50 383.7 57 378.7 64.2C373.7 71.3 367.3 78.7 367 85.8C366.7 93 372.3 100 370.5 107.2C368.7 114.3 359.3 121.7 365.3 128.8C371.3 136 392.7 143 400.7 150C408.7 157 403.3 164 392.7 171.2C382 178.3 366 185.7 359.8 192.8C353.7 200 357.3 207 358.3 214.2C359.3 221.3 357.7 228.7 366 235.8C374.3 243 392.7 250 390.7 257.2C388.7 264.3 366.3 271.7 356.8 278.8C347.3 286 350.7 293 352.3 296.5L354 300L0 300L0 296.5C0 293 0 286 0 278.8C0 271.7 0 264.3 0 257.2C0 250 0 243 0 235.8C0 228.7 0 221.3 0 214.2C0 207 0 200 0 192.8C0 185.7 0 178.3 0 171.2C0 164 0 157 0 150C0 143 0 136 0 128.8C0 121.7 0 114.3 0 107.2C0 100 0 93 0 85.8C0 78.7 0 71.3 0 64.2C0 57 0 50 0 42.8C0 35.7 0 28.3 0 21.2C0 14 0 7 0 3.5L0 0Z" fill="#d0eedb"></path><path d="M325 0L327 3.5C329 7 333 14 332.8 21.2C332.7 28.3 328.3 35.7 330.8 42.8C333.3 50 342.7 57 343.2 64.2C343.7 71.3 335.3 78.7 329 85.8C322.7 93 318.3 100 317.5 107.2C316.7 114.3 319.3 121.7 319.8 128.8C320.3 136 318.7 143 318.2 150C317.7 157 318.3 164 318.2 171.2C318 178.3 317 185.7 321.5 192.8C326 200 336 207 337.8 214.2C339.7 221.3 333.3 228.7 328.5 235.8C323.7 243 320.3 250 321.2 257.2C322 264.3 327 271.7 329.3 278.8C331.7 286 331.3 293 331.2 296.5L331 300L0 300L0 296.5C0 293 0 286 0 278.8C0 271.7 0 264.3 0 257.2C0 250 0 243 0 235.8C0 228.7 0 221.3 0 214.2C0 207 0 200 0 192.8C0 185.7 0 178.3 0 171.2C0 164 0 157 0 150C0 143 0 136 0 128.8C0 121.7 0 114.3 0 107.2C0 100 0 93 0 85.8C0 78.7 0 71.3 0 64.2C0 57 0 50 0 42.8C0 35.7 0 28.3 0 21.2C0 14 0 7 0 3.5L0 0Z" fill="#bdeacc"></path><path d="M245 0L249.8 3.5C254.7 7 264.3 14 270.5 21.2C276.7 28.3 279.3 35.7 283 42.8C286.7 50 291.3 57 291.5 64.2C291.7 71.3 287.3 78.7 285.7 85.8C284 93 285 100 282.2 107.2C279.3 114.3 272.7 121.7 271.5 128.8C270.3 136 274.7 143 276.2 150C277.7 157 276.3 164 277.7 171.2C279 178.3 283 185.7 285.7 192.8C288.3 200 289.7 207 283.5 214.2C277.3 221.3 263.7 228.7 260.7 235.8C257.7 243 265.3 250 272.3 257.2C279.3 264.3 285.7 271.7 285.3 278.8C285 286 278 293 274.5 296.5L271 300L0 300L0 296.5C0 293 0 286 0 278.8C0 271.7 0 264.3 0 257.2C0 250 0 243 0 235.8C0 228.7 0 221.3 0 214.2C0 207 0 200 0 192.8C0 185.7 0 178.3 0 171.2C0 164 0 157 0 150C0 143 0 136 0 128.8C0 121.7 0 114.3 0 107.2C0 100 0 93 0 85.8C0 78.7 0 71.3 0 64.2C0 57 0 50 0 42.8C0 35.7 0 28.3 0 21.2C0 14 0 7 0 3.5L0 0Z" fill="#aae6bd"></path><path d="M217 0L219.3 3.5C221.7 7 226.3 14 223.7 21.2C221 28.3 211 35.7 207.8 42.8C204.7 50 208.3 57 212.2 64.2C216 71.3 220 78.7 220.5 85.8C221 93 218 100 214.5 107.2C211 114.3 207 121.7 206.8 128.8C206.7 136 210.3 143 212.8 150C215.3 157 216.7 164 216 171.2C215.3 178.3 212.7 185.7 214.7 192.8C216.7 200 223.3 207 224.5 214.2C225.7 221.3 221.3 228.7 222.7 235.8C224 243 231 250 234 257.2C237 264.3 236 271.7 234.8 278.8C233.7 286 232.3 293 231.7 296.5L231 300L0 300L0 296.5C0 293 0 286 0 278.8C0 271.7 0 264.3 0 257.2C0 250 0 243 0 235.8C0 228.7 0 221.3 0 214.2C0 207 0 200 0 192.8C0 185.7 0 178.3 0 171.2C0 164 0 157 0 150C0 143 0 136 0 128.8C0 121.7 0 114.3 0 107.2C0 100 0 93 0 85.8C0 78.7 0 71.3 0 64.2C0 57 0 50 0 42.8C0 35.7 0 28.3 0 21.2C0 14 0 7 0 3.5L0 0Z" fill="#97e2ad"></path><path d="M175 0L171.3 3.5C167.7 7 160.3 14 157.8 21.2C155.3 28.3 157.7 35.7 158.5 42.8C159.3 50 158.7 57 157.5 64.2C156.3 71.3 154.7 78.7 152.8 85.8C151 93 149 100 148 107.2C147 114.3 147 121.7 148.3 128.8C149.7 136 152.3 143 154.2 150C156 157 157 164 156.8 171.2C156.7 178.3 155.3 185.7 154.5 192.8C153.7 200 153.3 207 153.7 214.2C154 221.3 155 228.7 157 235.8C159 243 162 250 161 257.2C160 264.3 155 271.7 155.5 278.8C156 286 162 293 165 296.5L168 300L0 300L0 296.5C0 293 0 286 0 278.8C0 271.7 0 264.3 0 257.2C0 250 0 243 0 235.8C0 228.7 0 221.3 0 214.2C0 207 0 200 0 192.8C0 185.7 0 178.3 0 171.2C0 164 0 157 0 150C0 143 0 136 0 128.8C0 121.7 0 114.3 0 107.2C0 100 0 93 0 85.8C0 78.7 0 71.3 0 64.2C0 57 0 50 0 42.8C0 35.7 0 28.3 0 21.2C0 14 0 7 0 3.5L0 0Z" fill="#83de9d"></path><path d="M99 0L102.2 3.5C105.3 7 111.7 14 112.8 21.2C114 28.3 110 35.7 107.7 42.8C105.3 50 104.7 57 106.3 64.2C108 71.3 112 78.7 112.5 85.8C113 93 110 100 109.3 107.2C108.7 114.3 110.3 121.7 110.7 128.8C111 136 110 143 110.5 150C111 157 113 164 112 171.2C111 178.3 107 185.7 105.5 192.8C104 200 105 207 107.2 214.2C109.3 221.3 112.7 228.7 111.5 235.8C110.3 243 104.7 250 103.2 257.2C101.7 264.3 104.3 271.7 107.7 278.8C111 286 115 293 117 296.5L119 300L0 300L0 296.5C0 293 0 286 0 278.8C0 271.7 0 264.3 0 257.2C0 250 0 243 0 235.8C0 228.7 0 221.3 0 214.2C0 207 0 200 0 192.8C0 185.7 0 178.3 0 171.2C0 164 0 157 0 150C0 143 0 136 0 128.8C0 121.7 0 114.3 0 107.2C0 100 0 93 0 85.8C0 78.7 0 71.3 0 64.2C0 57 0 50 0 42.8C0 35.7 0 28.3 0 21.2C0 14 0 7 0 3.5L0 0Z" fill="#6fd98c"></path></svg>