<svg id="visual" viewBox="0 0 540 960" width="540" height="960" xmlns="http://www.w3.org/2000/svg" xmlns:xlink="http://www.w3.org/1999/xlink" version="1.1"><rect x="0" y="0" width="540" height="960" fill="#ffffff"></rect><defs><linearGradient id="grad1_0" x1="0%" y1="100%" x2="100%" y2="0%"><stop offset="30%" stop-color="#e93e3e" stop-opacity="1"></stop><stop offset="70%" stop-color="#e93e3e" stop-opacity="1"></stop></linearGradient></defs><defs><linearGradient id="grad1_1" x1="0%" y1="100%" x2="100%" y2="0%"><stop offset="30%" stop-color="#e93e3e" stop-opacity="1"></stop><stop offset="70%" stop-color="#f3655b" stop-opacity="1"></stop></linearGradient></defs><defs><linearGradient id="grad1_2" x1="0%" y1="100%" x2="100%" y2="0%"><stop offset="30%" stop-color="#fb867a" stop-opacity="1"></stop><stop offset="70%" stop-color="#f3655b" stop-opacity="1"></stop></linearGradient></defs><defs><linearGradient id="grad1_3" x1="0%" y1="100%" x2="100%" y2="0%"><stop offset="30%" stop-color="#fb867a" stop-opacity="1"></stop><stop offset="70%" stop-color="#ffa59a" stop-opacity="1"></stop></linearGradient></defs><defs><linearGradient id="grad1_4" x1="0%" y1="100%" x2="100%" y2="0%"><stop offset="30%" stop-color="#ffc3ba" stop-opacity="1"></stop><stop offset="70%" stop-color="#ffa59a" stop-opacity="1"></stop></linearGradient></defs><defs><linearGradient id="grad1_5" x1="0%" y1="100%" x2="100%" y2="0%"><stop offset="30%" stop-color="#ffc3ba" stop-opacity="1"></stop><stop offset="70%" stop-color="#ffe1dc" stop-opacity="1"></stop></linearGradient></defs><defs><linearGradient id="grad1_6" x1="0%" y1="100%" x2="100%" y2="0%"><stop offset="30%" stop-color="#ffffff" stop-opacity="1"></stop><stop offset="70%" stop-color="#ffe1dc" stop-opacity="1"></stop></linearGradient></defs><defs><linearGradient id="grad2_0" x1="0%" y1="100%" x2="100%" y2="0%"><stop offset="30%" stop-color="#e93e3e" stop-opacity="1"></stop><stop offset="70%" stop-color="#e93e3e" stop-opacity="1"></stop></linearGradient></defs><defs><linearGradient id="grad2_1" x1="0%" y1="100%" x2="100%" y2="0%"><stop offset="30%" stop-color="#f3655b" stop-opacity="1"></stop><stop offset="70%" stop-color="#e93e3e" stop-opacity="1"></stop></linearGradient></defs><defs><linearGradient id="grad2_2" x1="0%" y1="100%" x2="100%" y2="0%"><stop offset="30%" stop-color="#f3655b" stop-opacity="1"></stop><stop offset="70%" stop-color="#fb867a" stop-opacity="1"></stop></linearGradient></defs><defs><linearGradient id="grad2_3" x1="0%" y1="100%" x2="100%" y2="0%"><stop offset="30%" stop-color="#ffa59a" stop-opacity="1"></stop><stop offset="70%" stop-color="#fb867a" stop-opacity="1"></stop></linearGradient></defs><defs><linearGradient id="grad2_4" x1="0%" y1="100%" x2="100%" y2="0%"><stop offset="30%" stop-color="#ffa59a" stop-opacity="1"></stop><stop offset="70%" stop-color="#ffc3ba" stop-opacity="1"></stop></linearGradient></defs><defs><linearGradient id="grad2_5" x1="0%" y1="100%" x2="100%" y2="0%"><stop offset="30%" stop-color="#ffe1dc" stop-opacity="1"></stop><stop offset="70%" stop-color="#ffc3ba" stop-opacity="1"></stop></linearGradient></defs><defs><linearGradient id="grad2_6" x1="0%" y1="100%" x2="100%" y2="0%"><stop offset="30%" stop-color="#ffe1dc" stop-opacity="1"></stop><stop offset="70%" stop-color="#ffffff" stop-opacity="1"></stop></linearGradient></defs><g transform="translate(540, 960)"><path d="M-540 0C-503.1 -37.8 -466.3 -75.6 -460.7 -123.5C-455.2 -171.3 -481 -229.1 -467.7 -270C-454.3 -310.9 -401.7 -334.7 -355.7 -355.7C-309.6 -376.6 -270.2 -394.7 -230 -398.4C-189.8 -402 -149 -391.2 -110.5 -412.5C-72.1 -433.7 -36 -486.8 0 -540L0 0Z" fill="#fff0ee"></path><path d="M-462.9 0C-431.3 -32.4 -399.7 -64.8 -394.9 -105.8C-390.2 -146.8 -412.3 -196.4 -400.8 -231.4C-389.4 -266.4 -344.3 -286.9 -304.9 -304.9C-265.4 -322.8 -231.6 -338.3 -197.1 -341.5C-162.7 -344.6 -127.7 -335.4 -94.7 -353.5C-61.8 -371.7 -30.9 -417.3 0 -462.9L0 0Z" fill="#ffd2cb"></path><path d="M-385.7 0C-359.4 -27 -333.1 -54 -329.1 -88.2C-325.2 -122.4 -343.6 -163.7 -334 -192.9C-324.5 -222 -286.9 -239.1 -254.1 -254.1C-221.2 -269 -193 -281.9 -164.3 -284.6C-135.6 -287.2 -106.4 -279.5 -78.9 -294.6C-51.5 -309.8 -25.7 -347.7 0 -385.7L0 0Z" fill="#ffb4aa"></path><path d="M-308.6 0C-287.5 -21.6 -266.4 -43.2 -263.3 -70.5C-260.1 -97.9 -274.9 -130.9 -267.2 -154.3C-259.6 -177.6 -229.5 -191.3 -203.2 -203.2C-176.9 -215.2 -154.4 -225.6 -131.4 -227.6C-108.5 -229.7 -85.1 -223.6 -63.2 -235.7C-41.2 -247.8 -20.6 -278.2 0 -308.6L0 0Z" fill="#fe968a"></path><path d="M-231.4 0C-215.6 -16.2 -199.8 -32.4 -197.5 -52.9C-195.1 -73.4 -206.2 -98.2 -200.4 -115.7C-194.7 -133.2 -172.2 -143.4 -152.4 -152.4C-132.7 -161.4 -115.8 -169.2 -98.6 -170.7C-81.4 -172.3 -63.8 -167.7 -47.4 -176.8C-30.9 -185.9 -15.4 -208.6 0 -231.4L0 0Z" fill="#f7766a"></path><path d="M-154.3 0C-143.8 -10.8 -133.2 -21.6 -131.6 -35.3C-130.1 -48.9 -137.4 -65.5 -133.6 -77.1C-129.8 -88.8 -114.8 -95.6 -101.6 -101.6C-88.5 -107.6 -77.2 -112.8 -65.7 -113.8C-54.2 -114.9 -42.6 -111.8 -31.6 -117.8C-20.6 -123.9 -10.3 -139.1 0 -154.3L0 0Z" fill="#ee534c"></path><path d="M-77.1 0C-71.9 -5.4 -66.6 -10.8 -65.8 -17.6C-65 -24.5 -68.7 -32.7 -66.8 -38.6C-64.9 -44.4 -57.4 -47.8 -50.8 -50.8C-44.2 -53.8 -38.6 -56.4 -32.9 -56.9C-27.1 -57.4 -21.3 -55.9 -15.8 -58.9C-10.3 -62 -5.1 -69.5 0 -77.1L0 0Z" fill="#e93e3e"></path></g><g transform="translate(0, 0)"><path d="M540 0C512.8 44 485.7 87.9 457.8 122.7C430 157.4 401.6 183 394 227.5C386.5 272 399.8 335.6 381.8 381.8C363.9 428.1 314.6 457.1 264 457.3C213.4 457.4 161.5 428.6 117.2 437.6C73 446.5 36.5 493.3 0 540L0 0Z" fill="#fff0ee"></path><path d="M462.9 0C439.6 37.7 416.3 75.4 392.4 105.2C368.6 134.9 344.2 156.8 337.7 195C331.3 233.2 342.7 287.6 327.3 327.3C311.9 367 269.7 391.8 226.3 391.9C182.9 392 138.4 367.4 100.5 375.1C62.6 382.7 31.3 422.8 0 462.9L0 0Z" fill="#ffd2cb"></path><path d="M385.7 0C366.3 31.4 346.9 62.8 327 87.6C307.2 112.5 286.9 130.7 281.5 162.5C276.1 194.3 285.6 239.7 272.7 272.7C259.9 305.8 224.7 326.5 188.6 326.6C152.4 326.7 115.3 306.1 83.7 312.5C52.2 319 26.1 352.3 0 385.7L0 0Z" fill="#ffb4aa"></path><path d="M308.6 0C293 25.1 277.5 50.2 261.6 70.1C245.7 90 229.5 104.6 225.2 130C220.8 155.4 228.5 191.7 218.2 218.2C207.9 244.6 179.8 261.2 150.9 261.3C121.9 261.4 92.3 244.9 67 250C41.7 255.2 20.9 281.9 0 308.6L0 0Z" fill="#fe968a"></path><path d="M231.4 0C219.8 18.8 208.1 37.7 196.2 52.6C184.3 67.5 172.1 78.4 168.9 97.5C165.6 116.6 171.3 143.8 163.6 163.6C155.9 183.5 134.8 195.9 113.1 196C91.5 196 69.2 183.7 50.2 187.5C31.3 191.4 15.6 211.4 0 231.4L0 0Z" fill="#f7766a"></path><path d="M154.3 0C146.5 12.6 138.8 25.1 130.8 35.1C122.9 45 114.7 52.3 112.6 65C110.4 77.7 114.2 95.9 109.1 109.1C104 122.3 89.9 130.6 75.4 130.6C61 130.7 46.1 122.5 33.5 125C20.9 127.6 10.4 140.9 0 154.3L0 0Z" fill="#ee534c"></path><path d="M77.1 0C73.3 6.3 69.4 12.6 65.4 17.5C61.4 22.5 57.4 26.1 56.3 32.5C55.2 38.9 57.1 47.9 54.5 54.5C52 61.2 44.9 65.3 37.7 65.3C30.5 65.3 23.1 61.2 16.7 62.5C10.4 63.8 5.2 70.5 0 77.1L0 0Z" fill="#e93e3e"></path></g></svg>