<svg id="visual" viewBox="0 0 900 600" width="900" height="600" xmlns="http://www.w3.org/2000/svg" xmlns:xlink="http://www.w3.org/1999/xlink" version="1.1"><rect x="0" y="0" width="900" height="600" fill="#F1FBF4"></rect><path d="M0 431L10.7 423C21.3 415 42.7 399 64.2 399.3C85.7 399.7 107.3 416.3 128.8 421.3C150.3 426.3 171.7 419.7 193 418.3C214.3 417 235.7 421 257 420.8C278.3 420.7 299.7 416.3 321.2 410.3C342.7 404.3 364.3 396.7 385.8 393.3C407.3 390 428.7 391 450 398.5C471.3 406 492.7 420 514.2 418.8C535.7 417.7 557.3 401.3 578.8 402.5C600.3 403.7 621.7 422.3 643 423.2C664.3 424 685.7 407 707 399.8C728.3 392.7 749.7 395.3 771.2 399.2C792.7 403 814.3 408 835.8 412C857.3 416 878.7 419 889.3 420.5L900 422L900 601L889.3 601C878.7 601 857.3 601 835.8 601C814.3 601 792.7 601 771.2 601C749.7 601 728.3 601 707 601C685.7 601 664.3 601 643 601C621.7 601 600.3 601 578.8 601C557.3 601 535.7 601 514.2 601C492.7 601 471.3 601 450 601C428.7 601 407.3 601 385.8 601C364.3 601 342.7 601 321.2 601C299.7 601 278.3 601 257 601C235.7 601 214.3 601 193 601C171.7 601 150.3 601 128.8 601C107.3 601 85.7 601 64.2 601C42.7 601 21.3 601 10.7 601L0 601Z" fill="#d9f5e3"></path><path d="M0 437L10.7 438.2C21.3 439.3 42.7 441.7 64.2 446.2C85.7 450.7 107.3 457.3 128.8 457.7C150.3 458 171.7 452 193 450.7C214.3 449.3 235.7 452.7 257 453.8C278.3 455 299.7 454 321.2 452C342.7 450 364.3 447 385.8 443.2C407.3 439.3 428.7 434.7 450 430.5C471.3 426.3 492.7 422.7 514.2 423.2C535.7 423.7 557.3 428.3 578.8 434.8C600.3 441.3 621.7 449.7 643 455.5C664.3 461.3 685.7 464.7 707 464.2C728.3 463.7 749.7 459.3 771.2 451.5C792.7 443.7 814.3 432.3 835.8 430.8C857.3 429.3 878.7 437.7 889.3 441.8L900 446L900 601L889.3 601C878.7 601 857.3 601 835.8 601C814.3 601 792.7 601 771.2 601C749.7 601 728.3 601 707 601C685.7 601 664.3 601 643 601C621.7 601 600.3 601 578.8 601C557.3 601 535.7 601 514.2 601C492.7 601 471.3 601 450 601C428.7 601 407.3 601 385.8 601C364.3 601 342.7 601 321.2 601C299.7 601 278.3 601 257 601C235.7 601 214.3 601 193 601C171.7 601 150.3 601 128.8 601C107.3 601 85.7 601 64.2 601C42.7 601 21.3 601 10.7 601L0 601Z" fill="#beefce"></path><path d="M0 457L10.7 456.8C21.3 456.7 42.7 456.3 64.2 460C85.7 463.7 107.3 471.3 128.8 474.3C150.3 477.3 171.7 475.7 193 474.2C214.3 472.7 235.7 471.3 257 469.5C278.3 467.7 299.7 465.3 321.2 465.5C342.7 465.7 364.3 468.3 385.8 468.7C407.3 469 428.7 467 450 464.5C471.3 462 492.7 459 514.2 462.3C535.7 465.7 557.3 475.3 578.8 479.8C600.3 484.3 621.7 483.7 643 483C664.3 482.3 685.7 481.7 707 482C728.3 482.3 749.7 483.7 771.2 482.3C792.7 481 814.3 477 835.8 475.8C857.3 474.7 878.7 476.3 889.3 477.2L900 478L900 601L889.3 601C878.7 601 857.3 601 835.8 601C814.3 601 792.7 601 771.2 601C749.7 601 728.3 601 707 601C685.7 601 664.3 601 643 601C621.7 601 600.3 601 578.8 601C557.3 601 535.7 601 514.2 601C492.7 601 471.3 601 450 601C428.7 601 407.3 601 385.8 601C364.3 601 342.7 601 321.2 601C299.7 601 278.3 601 257 601C235.7 601 214.3 601 193 601C171.7 601 150.3 601 128.8 601C107.3 601 85.7 601 64.2 601C42.7 601 21.3 601 10.7 601L0 601Z" fill="#a4e8b9"></path><path d="M0 506L10.7 504.2C21.3 502.3 42.7 498.7 64.2 502.3C85.7 506 107.3 517 128.8 522.2C150.3 527.3 171.7 526.7 193 525.7C214.3 524.7 235.7 523.3 257 524C278.3 524.7 299.7 527.3 321.2 527C342.7 526.7 364.3 523.3 385.8 522C407.3 520.7 428.7 521.3 450 520.3C471.3 519.3 492.7 516.7 514.2 513.8C535.7 511 557.3 508 578.8 506.8C600.3 505.7 621.7 506.3 643 509.3C664.3 512.3 685.7 517.7 707 517.8C728.3 518 749.7 513 771.2 508.3C792.7 503.7 814.3 499.3 835.8 498.3C857.3 497.3 878.7 499.7 889.3 500.8L900 502L900 601L889.3 601C878.7 601 857.3 601 835.8 601C814.3 601 792.7 601 771.2 601C749.7 601 728.3 601 707 601C685.7 601 664.3 601 643 601C621.7 601 600.3 601 578.8 601C557.3 601 535.7 601 514.2 601C492.7 601 471.3 601 450 601C428.7 601 407.3 601 385.8 601C364.3 601 342.7 601 321.2 601C299.7 601 278.3 601 257 601C235.7 601 214.3 601 193 601C171.7 601 150.3 601 128.8 601C107.3 601 85.7 601 64.2 601C42.7 601 21.3 601 10.7 601L0 601Z" fill="#8ae1a3"></path><path d="M0 558L10.7 554C21.3 550 42.7 542 64.2 540.7C85.7 539.3 107.3 544.7 128.8 546C150.3 547.3 171.7 544.7 193 545.7C214.3 546.7 235.7 551.3 257 551.8C278.3 552.3 299.7 548.7 321.2 548.3C342.7 548 364.3 551 385.8 550.2C407.3 549.3 428.7 544.7 450 543.8C471.3 543 492.7 546 514.2 546.2C535.7 546.3 557.3 543.7 578.8 544.7C600.3 545.7 621.7 550.3 643 553.7C664.3 557 685.7 559 707 557.8C728.3 556.7 749.7 552.3 771.2 549.7C792.7 547 814.3 546 835.8 545.3C857.3 544.7 878.7 544.3 889.3 544.2L900 544L900 601L889.3 601C878.7 601 857.3 601 835.8 601C814.3 601 792.7 601 771.2 601C749.7 601 728.3 601 707 601C685.7 601 664.3 601 643 601C621.7 601 600.3 601 578.8 601C557.3 601 535.7 601 514.2 601C492.7 601 471.3 601 450 601C428.7 601 407.3 601 385.8 601C364.3 601 342.7 601 321.2 601C299.7 601 278.3 601 257 601C235.7 601 214.3 601 193 601C171.7 601 150.3 601 128.8 601C107.3 601 85.7 601 64.2 601C42.7 601 21.3 601 10.7 601L0 601Z" fill="#6fd98c"></path></svg>